<svg version="1.1" xmlns="http://www.w3.org/2000/svg"  width="115" height="28" viewBox="65 185 420 100">
    <g fill="#ffffff" fill-rule="evenodd" stroke="none" stroke-width="1">
        <path d="M65,281.15929c0,2.511 2.0359,4.54727 4.54727,4.54727h410.90547c2.511,0 4.54727,-2.03627 4.54727,-4.54727v-92.31859c0,-2.511 -2.03627,-4.54727 -4.54727,-4.54727h-410.90547c-2.51136,0 -4.54727,2.03627 -4.54727,4.54727zM84.01485,266.69171v-63.38343h72.45704v63.38343zM161.39294,266.69171v-63.38343h72.45704v63.38343zM238.77103,203.30829v63.38343h72.45795v-63.38343zM316.15003,266.69171v-63.38343h72.45704v63.38343zM393.52812,203.30829v63.38343h72.45704v-63.38343zM173.204,256.84961h16.53386l7.85404,-14.1138l7.91315,14.1138h16.53477l-24.44792,-43.69922zM99.81132,215.51315v11.21992h13.22772v30.11654h14.46767v-30.11654h13.16888v-11.21992zM267.52975,241.02331c-6.55443,0 -14.64492,-3.77969 -14.64492,-11.63372c0,-9.97943 12.93242,-13.87644 22.2625,-13.87644c9.68477,0 20.84557,4.19258 20.84557,13.46354h-16.653c-0.47201,-2.00807 -2.42096,-3.07031 -4.42813,-3.07031c-1.65339,0 -4.36992,0.76758 -4.36992,2.83386c0,2.06719 2.83386,2.24453 4.31081,2.24453h7.61758c6.73177,0 14.64492,3.83789 14.64492,11.81016c0,10.21589 -12.93242,13.99557 -21.90873,13.99557c-7.79492,0 -22.32162,-2.83477 -22.32162,-13.46445h17.59792c0.29466,2.1263 2.48008,3.07122 4.36992,3.07122c1.83073,0 4.84193,-0.94492 4.84193,-3.18854c0,-2.06719 -2.77565,-2.18542 -4.25169,-2.18542zM346.4139,256.84961v-16.53477l9.86211,16.53477h16.53477l-11.57461,-20.66823l11.57461,-20.66823h-16.53477l-9.86211,16.53386v-16.53386h-14.46758v41.33646zM422.28684,241.02331c-6.55534,0 -14.64583,-3.77969 -14.64583,-11.63372c0,-9.97943 12.93333,-13.87644 22.26341,-13.87644c9.68477,0 20.84557,4.19258 20.84557,13.46354h-16.653c-0.47292,-2.00807 -2.42096,-3.07031 -4.42904,-3.07031c-1.65339,0 -4.36992,0.76758 -4.36992,2.83386c0,2.06719 2.83477,2.24453 4.31081,2.24453h7.61758c6.73177,0 14.64492,3.83789 14.64492,11.81016c0,10.21589 -12.93242,13.99557 -21.90782,13.99557c-7.79492,0 -22.32253,-2.83477 -22.32253,-13.46445h17.59792c0.29557,2.1263 2.48008,3.07122 4.36992,3.07122c1.83073,0 4.84193,-0.94492 4.84193,-3.18854c0,-2.06719 -2.77474,-2.18542 -4.25169,-2.18542zM197.5919,256.84961c1.83073,0 3.36589,-1.53516 3.36589,-3.36589c0,-1.88984 -1.53516,-3.36589 -3.36589,-3.36589c-1.83073,0 -3.36589,1.47604 -3.36589,3.36589c0,1.83073 1.53516,3.36589 3.36589,3.36589z" data-paper-data="{&quot;isLogoContainer&quot;:true}"></path>

    </g>
</svg>